# xmcd
#
# Track frame offsets: 
#        150
#        11600
#        25255
#        33795
#        45987
#        59520
#        70305
#        81052
#        91690
#        104940
#        116075
#        128145
#        140295
#        160490
#        175045
#        185642
#        197812
#        210912
#        222995
#        234387
#        248082
#        262687
#        279760
#        294192
#        307410
#
# Disc length: 4271 seconds
#
# Revision: 0
# Processed by: cddbd v1.5.2PL0 Copyright (c) Steve Scherf et al.
# Submitted via: ExactAudioCopy v0.99pb5
#
DISCID=5d10ad19
DTITLE=The Peanuts - Best Album
DYEAR=2000
DGENRE=JPop
TTITLE0=The Peanuts Vendor
TTITLE1=Petite Fleur
TTITLE2=Heartaches At Sweet Sixteen
TTITLE3=Love Vacation
TTITLE4=Kokoro No Mado Ni Tomoshibi O
TTITLE5=Passion Flower
TTITLE6=Maiden's Prayer
TTITLE7=Tintarella Di Luna
TTITLE8=Furimu Kanaide
TTITLE9=Hello, Mary Lou
TTITLE10=My Home Town
TTITLE11=Luna Napoletana
TTITLE12=Love's Finale
TTITLE13=Una Sero Di Tokyo
TTITLE14=Like I Do
TTITLE15=June Bride
TTITLE16=The Silver Colored Street
TTITLE17=The Rain In Rome
TTITLE18=Love Fugue
TTITLE19=Ophelia In Love
TTITLE20=Tokyo Woman
TTITLE21=Osaka Woman
TTITLE22=Rumor Becomes A Spirit
TTITLE23=After The Ring
TTITLE24=Star Dust
EXTD=
EXTT0=
EXTT1=
EXTT2=
EXTT3=
EXTT4=
EXTT5=
EXTT6=
EXTT7=
EXTT8=
EXTT9=
EXTT10=
EXTT11=
EXTT12=
EXTT13=
EXTT14=
EXTT15=
EXTT16=
EXTT17=
EXTT18=
EXTT19=
EXTT20=
EXTT21=
EXTT22=
EXTT23=
EXTT24=
PLAYORDER=
